<?xml version="1.0" standalone="no"?>
<!DOCTYPE svg PUBLIC "-//W3C//DTD SVG 20010904//EN"
 "http://www.w3.org/TR/2001/REC-SVG-20010904/DTD/svg10.dtd">
<svg version="1.0" xmlns="http://www.w3.org/2000/svg"
 width="700.000000pt" height="700.000000pt" viewBox="0 0 700.000000 700.000000"
 preserveAspectRatio="xMidYMid meet">
<metadata>
Created by potrace 1.11, written by Peter Selinger 2001-2013
</metadata>
<g transform="translate(0.000000,700.000000) scale(0.100000,-0.100000)"
fill="#000000" stroke="none">
<path d="M3215 6105 c-138 -32 -257 -144 -297 -279 -7 -22 -13 -104 -14 -181
l-1 -140 -89 -27 c-139 -43 -269 -96 -394 -161 -63 -33 -125 -65 -137 -71
l-23 -11 -1 -700 c-1 -385 -1 -706 0 -713 3 -24 -30 -78 -58 -95 -65 -38 -150
-5 -169 66 -4 18 -8 310 -7 650 0 339 -2 617 -6 617 -19 0 -258 -233 -328
-320 -20 -25 -38 -47 -42 -50 -3 -3 -18 -23 -34 -45 -17 -22 -32 -42 -35 -45
-36 -35 -170 -264 -230 -392 -58 -124 -135 -343 -156 -443 -2 -11 -9 -45 -15
-75 -7 -30 -13 -64 -15 -75 -2 -11 -5 -29 -7 -40 -4 -17 -11 -75 -21 -178 -1
-15 -5 -29 -8 -32 -3 -3 -85 -7 -181 -8 l-176 -2 -30 -29 c-56 -54 -49 -141
15 -183 26 -17 156 -18 2738 -18 2964 -1 2748 -6 2786 58 24 39 25 68 4 112
-23 49 -61 63 -173 63 -53 1 -130 1 -172 1 l-77 1 -7 67 c-13 123 -13 125 -41
253 -22 105 -105 360 -148 455 -156 344 -361 623 -636 867 -36 31 -66 55 -67
54 -2 -1 -3 -285 -3 -630 0 -448 -4 -634 -12 -650 -41 -78 -142 -89 -195 -20
l-27 36 0 718 c-1 395 -3 720 -6 723 -16 14 -145 84 -228 123 -103 49 -304
123 -387 143 l-50 12 -2 137 c-2 106 -7 150 -22 194 -45 132 -149 229 -279
263 -70 19 -458 19 -537 0z"/>
<path d="M1608 2892 l-106 -3 1 -164 2 -165 30 -30 c29 -28 44 -33 220 -64
105 -19 208 -37 230 -40 109 -17 98 -9 144 -116 l42 -99 -150 -213 c-82 -117
-151 -224 -152 -238 -6 -66 -2 -71 213 -287 218 -218 250 -242 306 -228 14 3
122 74 238 156 l213 150 43 -20 c24 -10 68 -30 99 -44 31 -13 56 -31 56 -38 0
-17 6 -52 39 -239 13 -80 27 -161 30 -180 9 -60 24 -96 50 -121 l26 -24 313
-3 314 -3 36 33 c22 21 37 46 40 68 3 19 8 42 10 50 2 8 6 33 9 55 4 22 8 51
11 65 7 40 14 78 31 185 20 129 24 137 70 154 22 8 63 25 92 38 l53 24 214
-150 c216 -151 256 -172 305 -153 39 15 433 416 447 454 6 18 9 44 6 58 -5 20
-177 275 -284 419 l-20 28 42 101 43 101 61 10 c119 22 177 31 220 37 16 2 37
6 45 9 8 3 35 7 60 10 91 10 137 26 166 56 l29 30 2 165 1 164 -121 0 c-151 1
-1068 1 -1158 0 l-67 0 -7 -57 c-42 -340 -342 -589 -685 -569 -165 9 -292 67
-416 191 -44 44 -93 103 -108 130 -36 66 -73 176 -81 248 -4 31 -12 57 -19 57
-117 3 -1151 4 -1228 2z"/>
</g>
</svg>
